<svg width="800" height="600" viewBox="0 0 800 600" fill="none" xmlns="http://www.w3.org/2000/svg">
  <!-- App frame -->
  <rect x="100" y="50" width="600" height="500" rx="16" fill="#F8F9FA" stroke="#E4E7EC" stroke-width="2"/>
  
  <!-- App header -->
  <rect x="100" y="50" width="600" height="60" rx="16" fill="#F1F5F9" stroke="#E4E7EC" stroke-width="2"/>
  <text x="140" y="85" font-family="Arial" font-weight="bold" font-size="18" fill="#1E293B">MindTrack Dashboard</text>
  
  <!-- Sidebar -->
  <rect x="100" y="110" width="160" height="440" fill="#F1F5F9" stroke="#E4E7EC" stroke-width="2"/>
  
  <!-- Sidebar menu items -->
  <rect x="120" y="140" width="120" height="40" rx="8" fill="#EFF6FF" stroke="#BFDBFE" stroke-width="2"/>
  <text x="145" y="165" font-family="Arial" font-size="14" fill="#3B82F6">Dashboard</text>
  
  <text x="145" y="225" font-family="Arial" font-size="14" fill="#64748B">Mood Tracker</text>
  <text x="145" y="275" font-family="Arial" font-size="14" fill="#64748B">Habits</text>
  <text x="145" y="325" font-family="Arial" font-size="14" fill="#64748B">Journal</text>
  <text x="145" y="375" font-family="Arial" font-size="14" fill="#64748B">Analytics</text>
  <text x="145" y="425" font-family="Arial" font-size="14" fill="#64748B">Resources</text>
  
  <!-- Main content area -->
  <text x="290" y="150" font-family="Arial" font-weight="bold" font-size="20" fill="#1E293B">Weekly Mood Overview</text>
  
  <!-- Mood chart -->
  <rect x="290" y="170" width="380" height="180" rx="8" fill="white" stroke="#E4E7EC" stroke-width="2"/>
  
  <!-- Chart axes -->
  <line x1="320" y1="310" x2="650" y2="310" stroke="#CBD5E1" stroke-width="2"/>
  <line x1="320" y1="310" x2="320" y2="190" stroke="#CBD5E1" stroke-width="2"/>
  
  <!-- Chart labels -->
  <text x="310" y="330" font-family="Arial" font-size="10" fill="#64748B">Mon</text>
  <text x="360" y="330" font-family="Arial" font-size="10" fill="#64748B">Tue</text>
  <text x="410" y="330" font-family="Arial" font-size="10" fill="#64748B">Wed</text>
  <text x="460" y="330" font-family="Arial" font-size="10" fill="#64748B">Thu</text>
  <text x="510" y="330" font-family="Arial" font-size="10" fill="#64748B">Fri</text>
  <text x="560" y="330" font-family="Arial" font-size="10" fill="#64748B">Sat</text>
  <text x="610" y="330" font-family="Arial" font-size="10" fill="#64748B">Sun</text>
  
  <!-- Mood line -->
  <path d="M320 260 L370 240 L420 280 L470 220 L520 250 L570 230 L620 270" stroke="#3B82F6" stroke-width="3" stroke-linecap="round" stroke-linejoin="round"/>
  
  <!-- Data points -->
  <circle cx="320" cy="260" r="6" fill="#BFDBFE" stroke="#3B82F6" stroke-width="2"/>
  <circle cx="370" cy="240" r="6" fill="#BFDBFE" stroke="#3B82F6" stroke-width="2"/>
  <circle cx="420" cy="280" r="6" fill="#BFDBFE" stroke="#3B82F6" stroke-width="2"/>
  <circle cx="470" cy="220" r="6" fill="#BFDBFE" stroke="#3B82F6" stroke-width="2"/>
  <circle cx="520" cy="250" r="6" fill="#BFDBFE" stroke="#3B82F6" stroke-width="2"/>
  <circle cx="570" cy="230" r="6" fill="#BFDBFE" stroke="#3B82F6" stroke-width="2"/>
  <circle cx="620" cy="270" r="6" fill="#BFDBFE" stroke="#3B82F6" stroke-width="2"/>
  
  <!-- Habit tracking section -->
  <text x="290" y="390" font-family="Arial" font-weight="bold" font-size="20" fill="#1E293B">Daily Habits</text>
  
  <!-- Habit cards -->
  <rect x="290" y="410" width="180" height="100" rx="8" fill="white" stroke="#E4E7EC" stroke-width="2"/>
  <text x="310" y="440" font-family="Arial" font-weight="bold" font-size="14" fill="#1E293B">Meditation</text>
  <rect x="310" y="455" width="140" height="10" rx="5" fill="#F1F5F9"/>
  <rect x="310" y="455" width="100" height="10" rx="5" fill="#3B82F6"/>
  <text x="310" y="480" font-family="Arial" font-size="12" fill="#64748B">5 days streak</text>
  
  <rect x="490" y="410" width="180" height="100" rx="8" fill="white" stroke="#E4E7EC" stroke-width="2"/>
  <text x="510" y="440" font-family="Arial" font-weight="bold" font-size="14" fill="#1E293B">Exercise</text>
  <rect x="510" y="455" width="140" height="10" rx="5" fill="#F1F5F9"/>
  <rect x="510" y="455" width="70" height="10" rx="5" fill="#3B82F6"/>
  <text x="510" y="480" font-family="Arial" font-size="12" fill="#64748B">3 days streak</text>
</svg> 