<svg width="32" height="32" viewBox="0 0 32 32" fill="none" xmlns="http://www.w3.org/2000/svg">
  <!-- Brain outline -->
  <path d="M16 4C12.5 4 10 6.5 10 10C10 11.5 10.5 12.8 11.4 13.7C11.8 14.1 12.3 14.4 12.8 14.6C12.3 15.1 12 15.8 12 16.5C12 17.9 13.1 19 14.5 19C15.9 19 17 17.9 17 16.5C17 16.3 17 16.2 16.9 16C17.3 16 17.7 16 18 15.9C18 16 18 16.2 18 16.5C18 17.9 19.1 19 20.5 19C21.9 19 23 17.9 23 16.5C23 15.8 22.7 15.1 22.2 14.6C22.7 14.4 23.2 14.1 23.6 13.7C24.5 12.8 25 11.5 25 10C25 6.5 22.5 4 19 4H16Z" stroke="currentColor" stroke-width="2" stroke-linecap="round" stroke-linejoin="round"/>
  
  <!-- Tracking line/graph -->
  <path d="M8 24L12 20L16 22L20 18L24 20" stroke="currentColor" stroke-width="2" stroke-linecap="round" stroke-linejoin="round"/>
  
  <!-- Dot indicators -->
  <circle cx="12" cy="20" r="1.5" fill="currentColor"/>
  <circle cx="16" cy="22" r="1.5" fill="currentColor"/>
  <circle cx="20" cy="18" r="1.5" fill="currentColor"/>
</svg> 